<?xml version="1.0" standalone="no"?>
<!DOCTYPE svg PUBLIC "-//W3C//DTD SVG 20010904//EN"
 "http://www.w3.org/TR/2001/REC-SVG-20010904/DTD/svg10.dtd">
<svg version="1.0" xmlns="http://www.w3.org/2000/svg"
 width="300.000000pt" height="300.000000pt" viewBox="0 0 300.000000 300.000000"
 preserveAspectRatio="xMidYMid meet">
<metadata>
Created by potrace 1.14, written by Peter Selinger 2001-2017
</metadata>
<g transform="translate(0.000000,300.000000) scale(0.100000,-0.100000)"
fill="#000000" stroke="none">
<path d="M161 2983 c-51 -18 -112 -75 -138 -130 -17 -36 -18 -97 -18 -1358 l0
-1320 30 -49 c35 -57 96 -104 151 -116 22 -6 591 -10 1315 -10 1384 0 1330 -2
1404 54 19 15 47 48 62 74 l28 47 3 1306 c2 1460 7 1364 -69 1440 -81 81 56
74 -1414 76 -1163 1 -1315 0 -1354 -14z"/>
</g>
</svg>
